<?xml version="1.0" encoding="UTF-8"?>
<svg width="495px" height="31px" viewBox="0 0 495 31" version="1.1" xmlns="http://www.w3.org/2000/svg" xmlns:xlink="http://www.w3.org/1999/xlink">
    <!-- Generator: Sketch 52.3 (67297) - http://www.bohemiancoding.com/sketch -->
    <title>Group 249</title>
    <desc>Created with Sketch.</desc>
    <defs>
        <polygon id="path-1" points="1.256 0 92.0057193 0 92.0057193 17.65225 1.256 17.65225"></polygon>
        <polygon id="path-3" points="1.6002 0 67.1943509 0 67.1943509 4.84116171 1.6002 4.84116171"></polygon>
        <polygon id="path-5" points="0.7786 0 54.820607 0 54.820607 29.3482 0.7786 29.3482"></polygon>
        <polygon id="path-7" points="1.7882 0 40.0142 0 40.0142 20.4996 1.7882 20.4996"></polygon>
        <polygon id="path-9" points="1.2258 0 27.2058 0 27.2058 14.4558 1.2258 14.4558"></polygon>
        <polygon id="path-11" points="1.2976 0 18.3956 0 18.3956 8.55320313 1.2976 8.55320313"></polygon>
        <polygon id="path-13" points="0.9094 0 44.184 0 44.184 17.6600719 0.9094 17.6600719"></polygon>
        <polygon id="path-15" points="1.2454 0 32.184 0 32.184 4.84202492 1.2454 4.84202492"></polygon>
        <polygon id="path-17" points="0.388024882 0 91.1328 0 91.1328 30.514 0.388024882 30.514"></polygon>
        <polygon id="path-19" points="1.20170277 0 66.7886 0 66.7886 30.514 1.20170277 30.514"></polygon>
        <polygon id="path-21" points="0.0122224431 1.98958094 41.7444 1.98958094 41.7444 24.514 0.0122224431 24.514"></polygon>
        <polygon id="path-23" points="0.819277172 0.799712908 17.9179583 0.799712908 17.9179583 10.514 0.819277172 10.514"></polygon>
        <polygon id="path-25" points="0.725459033 0 91.4836 0 91.4836 30.514 0.725459033 30.514"></polygon>
        <polygon id="path-27" points="1.54015677 0 67.1438 0 67.1438 30.514 1.54015677 30.514"></polygon>
        <polygon id="path-29" points="0.350621067 1.98835895 42.1066 1.98835895 42.1066 24.514 0.350621067 24.514"></polygon>
        <polygon id="path-31" points="1.16735616 0.801917142 18.2714629 0.801917142 18.2714629 10.514 1.16735616 10.514"></polygon>
        <polygon id="path-33" points="1.5646 0 55.6106 0 55.6106 30.514 1.5646 30.514"></polygon>
        <polygon id="path-35" points="0.3786 0 38.6106 0 38.6106 30.514 0.3786 30.514"></polygon>
        <polygon id="path-37" points="1.19318736 0 27.1632 0 27.1632 21.3668 1.19318736 21.3668"></polygon>
        <polygon id="path-39" points="1.9954 0 19.0934 0 19.0934 8.5572 1.9954 8.5572"></polygon>
        <polygon id="path-41" points="0.862237522 1.71053008 91.5996 1.71053008 91.5996 20.514 0.862237522 20.514"></polygon>
        <polygon id="path-43" points="1.67397889 0.520525195 67.2634 0.520525195 67.2634 6.514 1.67397889 6.514"></polygon>
        <polygon id="path-45" points="0.4328 1.70946838 51.2568 1.70946838 51.2568 20.514 0.4328 20.514"></polygon>
        <polygon id="path-47" points="0.7726 0.52195511 36.2606 0.52195511 36.2606 6.514 0.7726 6.514"></polygon>
        <polygon id="path-49" points="0.039 0.012 54.089 0.012 54.089 30.514 0.039 30.514"></polygon>
        <polygon id="path-51" points="0.849 0.8666 39.089 0.8666 39.089 22.514 0.849 22.514"></polygon>
        <polygon id="path-53" points="1.6616 0.9244 27.6536 0.9244 27.6536 16.514 1.6616 16.514"></polygon>
        <polygon id="path-55" points="0.4686 0.8042 17.5666125 0.8042 17.5666125 10.514 0.4686 10.514"></polygon>
        <polygon id="path-57" points="0.3098 2 54.3518 2 54.3518 2.0114 0.3098 2.0114"></polygon>
        <polygon id="path-59" points="1.599 2 8.671 2 8.671 2.0152 1.599 2.0152"></polygon>
        <polygon id="path-61" points="1.1204 1.70764335 51.9484 1.70764335 51.9484 20.514 1.1204 20.514"></polygon>
        <polygon id="path-63" points="1.464 0.52195511 36.956 0.52195511 36.956 6.514 1.464 6.514"></polygon>
        <polygon id="path-65" points="1.43895348 2 92.1778 2 92.1778 2.0112 1.43895348 2.0112"></polygon>
        <polygon id="path-67" points="0.5286 1.7176 54.5746 1.7176 54.5746 20.514 0.5286 20.514"></polygon>
        <polygon id="path-69" points="1.5382 0.5272 39.7602008 0.5272 39.7602008 6.514 1.5382 6.514"></polygon>
        <polygon id="path-71" points="0.6554 0 91.4115799 0 91.4115799 30.514 0.6554 30.514"></polygon>
        <polygon id="path-73" points="0.9972 0 66.6012244 0 66.6012244 30.514 0.9972 30.514"></polygon>
        <polygon id="path-75" points="0.0382 1.98578094 41.787068 1.98578094 41.787068 24.514 0.0382 24.514"></polygon>
        <polygon id="path-77" points="1.86902889 0.798825888 18.9726599 0.798825888 18.9726599 10.514 1.86902889 10.514"></polygon>
        <polygon id="path-79" points="1.91037115 0 92.6524 0 92.6524 29.3512 1.91037115 29.3512"></polygon>
        <polygon id="path-81" points="0.721779538 0 66.3162 0 66.3162 20.4878 0.721779538 20.4878"></polygon>
        <polygon id="path-83" points="1.53157354 0 43.2678 0 43.2678 14.437 1.53157354 14.437"></polygon>
        <polygon id="path-85" points="0.346298591 0 17.4455168 0 17.4455168 8.55530141 0.346298591 8.55530141"></polygon>
        <polygon id="path-87" points="0.177 1.1168 51.007 1.1168 51.007 14.514 0.177 14.514"></polygon>
        <polygon id="path-89" points="1.1752 1.4488 36.6672 1.4488 36.6672 18.514 1.1752 18.514"></polygon>
        <polygon id="path-91" points="0.696497967 0 17.7968126 0 17.7968126 8.56636282 0.696497967 8.56636282"></polygon>
        <polygon id="path-93" points="1.0878 0 55.1398 0 55.1398 17.6526 1.0878 17.6526"></polygon>
        <polygon id="path-95" points="1.8918 0 40.1398 0 40.1398 4.83920078 1.8918 4.83920078"></polygon>
    </defs>
    <g id="Page-1" stroke="none" stroke-width="1" fill="none" fillRule="evenodd">
        <g id="Desktop-HD" transform="translate(0.000000, -3787.000000)">
            <g id="Group-638" transform="translate(-72.000000, 3785.000000)">
                <g id="Group-249">
                    <g transform="translate(0.000000, 0.022000)">
                        <g id="Group-3" transform="translate(420.000000, 2.000000)">
                            <mask id="mask-2" fill="white">
                                <use xlink:href="#path-1"></use>
                            </mask>
                            <g id="Clip-2"></g>
                            <path d="M81.714,-58.6772 C83.164,-56.8592 84.502,-54.9012 85.702,-52.8212 C98.676,-30.3512 90.982,-1.6252 68.51,11.3508 C46.046,24.3228 17.31,16.6248 4.336,-5.8432 C3.136,-7.9272 2.116,-10.0712 1.256,-12.2392" id="Stroke-1" stroke="#000000" stroke-width="0.15" mask="url(#mask-2)"></path>
                        </g>
                        <g id="Group-6" transform="translate(432.000000, 2.000000)">
                            <mask id="mask-4" fill="white">
                                <use xlink:href="#path-3"></use>
                            </mask>
                            <g id="Clip-5"></g>
                            <path d="M60.3742,-49.8168 C61.1762,-48.7388 61.9222,-47.6088 62.6102,-46.4188 C72.0462,-30.0748 66.4482,-9.1768 50.1042,0.2612 C33.7602,9.6912 12.8702,4.0932 3.4322,-12.2508 C2.7442,-13.4448 2.1322,-14.6608 1.6002,-15.8988" id="Stroke-4" stroke="#000000" stroke-width="0.15" mask="url(#mask-4)"></path>
                        </g>
                        <g id="Group-9" transform="translate(508.000000, 2.000000)">
                            <mask id="mask-6" fill="white">
                                <use xlink:href="#path-5"></use>
                            </mask>
                            <g id="Clip-8"></g>
                            <path d="M0.7786,-46.4418 C3.0866,-46.7898 5.4426,-46.9658 7.8466,-46.9698 C33.7886,-46.9698 54.8206,-25.9338 54.8206,0.0122 C54.8266,11.1082 50.9726,21.3082 44.5386,29.3482" id="Stroke-7" stroke="#000000" stroke-width="0.15" mask="url(#mask-6)"></path>
                        </g>
                        <g id="Group-12" transform="translate(510.000000, 2.000000)">
                            <mask id="mask-8" fill="white">
                                <use xlink:href="#path-7"></use>
                            </mask>
                            <g id="Clip-11"></g>
                            <path d="M1.7882,-33.9224 C3.1162,-34.0744 4.4722,-34.1564 5.8462,-34.1564 C24.7142,-34.1564 40.0142,-18.8644 40.0142,0.0116 C40.0142,7.6956 37.4762,14.7916 33.1922,20.4996" id="Stroke-10" stroke="#000000" stroke-width="0.15" mask="url(#mask-8)"></path>
                        </g>
                        <g id="Group-15" transform="translate(510.000000, 2.000000)">
                            <mask id="mask-10" fill="white">
                                <use xlink:href="#path-9"></use>
                            </mask>
                            <g id="Clip-14"></g>
                            <path d="M1.2258,-20.8442 C2.7138,-21.1762 4.2618,-21.3522 5.8478,-21.3522 C17.6438,-21.3522 27.2058,-11.7902 27.2058,0.0118 C27.2058,5.5778 25.0738,10.6558 21.5818,14.4558" id="Stroke-13" stroke="#000000" stroke-width="0.15" mask="url(#mask-10)"></path>
                        </g>
                        <g id="Group-18" transform="translate(506.000000, 2.000000)">
                            <mask id="mask-12" fill="white">
                                <use xlink:href="#path-11"></use>
                            </mask>
                            <g id="Clip-17"></g>
                            <path d="M18.3956,0.0112 C18.3956,-4.7148 14.5736,-8.5428 9.8496,-8.5428 C5.1276,-8.5388 1.2976,-4.7148 1.2976,0.0112 C1.2976,4.7292 5.1276,8.5572 9.8496,8.5532 C14.5656,8.5532 18.3956,4.7372 18.3956,0.0112 Z" id="Stroke-16" stroke="#000000" stroke-width="0.15" mask="url(#mask-12)"></path>
                        </g>
                        <g id="Group-21" transform="translate(522.000000, 2.000000)">
                            <mask id="mask-14" fill="white">
                                <use xlink:href="#path-13"></use>
                            </mask>
                            <g id="Clip-20"></g>
                            <path d="M0.9094,-46.438 C4.6514,-56.038 11.5614,-64.472 21.1754,-70.026 C43.6514,-83 72.3854,-75.304 85.3614,-52.826 C98.3314,-30.356 90.6354,-1.622 68.1634,11.354 C58.5454,16.906 47.7834,18.68 37.5994,17.116" id="Stroke-19" stroke="#000000" stroke-width="0.15" mask="url(#mask-14)"></path>
                        </g>
                        <g id="Group-24" transform="translate(534.000000, 2.000000)">
                            <mask id="mask-16" fill="white">
                                <use xlink:href="#path-15"></use>
                            </mask>
                            <g id="Clip-23"></g>
                            <path d="M1.2454,-42.77 C4.0494,-49.34 8.9254,-55.086 15.5814,-58.928 C31.9274,-68.366 52.8274,-62.764 62.2694,-46.422 C71.7034,-30.074 66.1054,-9.176 49.7574,0.262 C43.1014,4.102 35.6894,5.452 28.5974,4.594" id="Stroke-22" stroke="#000000" stroke-width="0.15" mask="url(#mask-16)"></path>
                        </g>
                        <g id="Group-123" transform="translate(316.000000, 2.000000)">
                            <mask id="mask-18" fill="white">
                                <use xlink:href="#path-17"></use>
                            </mask>
                            <g id="Clip-122"></g>
                            <path d="M10.6788,58.6988 C9.2228,56.8748 7.8868,54.9248 6.6908,52.8428 C-6.2832,30.3708 1.4148,1.6408 23.8848,-11.3252 C46.3528,-24.3052 75.0808,-16.6012 88.0568,5.8668 C89.2548,7.9408 90.2748,10.0748 91.1328,12.2408" id="Stroke-121" stroke="#000000" stroke-width="0.15" mask="url(#mask-18)"></path>
                        </g>
                        <g id="Group-126" transform="translate(328.000000, 2.000000)">
                            <mask id="mask-20" fill="white">
                                <use xlink:href="#path-19"></use>
                            </mask>
                            <g id="Clip-125"></g>
                            <path d="M8.0246,49.8394 C7.2186,48.7614 6.4726,47.6254 5.7846,46.4374 C-3.6494,30.0934 1.9486,9.1954 18.2886,-0.2386 C34.6286,-9.6726 55.5226,-4.0746 64.9646,12.2694 C65.6506,13.4614 66.2606,14.6794 66.7886,15.9134" id="Stroke-124" stroke="#000000" stroke-width="0.15" mask="url(#mask-20)"></path>
                        </g>
                        <g id="Group-129" transform="translate(342.000000, 8.000000)">
                            <mask id="mask-22" fill="white">
                                <use xlink:href="#path-21"></use>
                            </mask>
                            <g id="Clip-128"></g>
                            <path d="M5.6204,37.7846 C4.5904,36.6606 3.6704,35.4066 2.8784,34.0306 C-3.0196,23.8206 0.4764,10.7486 10.6904,4.8546 C20.9064,-1.0434 33.9704,2.4566 39.8704,12.6746 C40.6624,14.0466 41.2884,15.4726 41.7444,16.9246" id="Stroke-127" stroke="#000000" stroke-width="0.15" mask="url(#mask-22)"></path>
                        </g>
                        <g id="Group-132" transform="translate(354.000000, 22.000000)">
                            <mask id="mask-24" fill="white">
                                <use xlink:href="#path-23"></use>
                            </mask>
                            <g id="Clip-131"></g>
                            <path d="M5.0968,1.9448 C1.0088,4.3088 -0.3952,9.5348 1.9648,13.6248 C4.3248,17.7148 9.5548,19.1128 13.6428,16.7568 C17.7268,14.3948 19.1328,9.1668 16.7728,5.0768 C14.4088,0.9908 9.1848,-0.4152 5.0968,1.9448 Z" id="Stroke-130" stroke="#000000" stroke-width="0.15" mask="url(#mask-24)"></path>
                        </g>
                        <g id="Group-135" transform="translate(214.000000, 2.000000)">
                            <mask id="mask-26" fill="white">
                                <use xlink:href="#path-25"></use>
                            </mask>
                            <g id="Clip-134"></g>
                            <path d="M91.4836,46.4604 C87.7416,56.0544 80.8276,64.4924 71.2136,70.0424 C48.7416,83.0144 20.0076,75.3204 7.0276,52.8424 C-5.9484,30.3704 1.7576,1.6364 24.2276,-11.3396 C33.8476,-16.8916 44.6096,-18.6576 54.7956,-17.0936" id="Stroke-133" stroke="#000000" stroke-width="0.15" mask="url(#mask-26)"></path>
                        </g>
                        <g id="Group-138" transform="translate(226.000000, 2.000000)">
                            <mask id="mask-28" fill="white">
                                <use xlink:href="#path-27"></use>
                            </mask>
                            <g id="Clip-137"></g>
                            <path d="M67.1438,42.7886 C64.3438,49.3546 59.4678,55.1046 52.8078,58.9486 C36.4598,68.3866 15.5638,62.7846 6.1238,46.4406 C-3.3122,30.0926 2.2878,9.1906 18.6318,-0.2394 C25.2918,-4.0854 32.7058,-5.4334 39.7918,-4.5834" id="Stroke-136" stroke="#000000" stroke-width="0.15" mask="url(#mask-28)"></path>
                        </g>
                        <g id="Group-141" transform="translate(240.000000, 8.000000)">
                            <mask id="mask-30" fill="white">
                                <use xlink:href="#path-29"></use>
                            </mask>
                            <g id="Clip-140"></g>
                            <path d="M42.1066,29.7612 C40.5546,34.6872 37.2286,39.0652 32.4026,41.8552 C22.1866,47.7572 9.1206,44.2572 3.2186,34.0352 C-2.6854,23.8192 0.8186,10.7572 11.0426,4.8552 C15.8626,2.0732 21.3146,1.3792 26.3606,2.4992" id="Stroke-139" stroke="#000000" stroke-width="0.15" mask="url(#mask-30)"></path>
                        </g>
                        <g id="Group-144" transform="translate(252.000000, 22.000000)">
                            <mask id="mask-32" fill="white">
                                <use xlink:href="#path-31"></use>
                            </mask>
                            <g id="Clip-143"></g>
                            <path d="M2.3156,13.6284 C4.6796,17.7184 9.9096,19.1204 13.9956,16.7604 C18.0856,14.3984 19.4856,9.1684 17.1236,5.0784 C14.7656,0.9924 9.5376,-0.4136 5.4456,1.9484 C1.3556,4.3084 -0.0484,9.5384 2.3156,13.6284 Z" id="Stroke-142" stroke="#000000" stroke-width="0.15" mask="url(#mask-32)"></path>
                        </g>
                        <g id="Group-147" transform="translate(264.000000, 2.000000)">
                            <mask id="mask-34" fill="white">
                                <use xlink:href="#path-33"></use>
                            </mask>
                            <g id="Clip-146"></g>
                            <path d="M55.6106,46.4566 C53.3086,46.8046 50.9486,46.9926 48.5486,46.9886 C22.6046,46.9886 1.5686,25.9526 1.5646,0.0106 C1.5686,-11.0894 5.4146,-21.2934 11.8566,-29.3254" id="Stroke-145" stroke="#000000" stroke-width="0.15" mask="url(#mask-34)"></path>
                        </g>
                        <g id="Group-150" transform="translate(278.000000, 2.000000)">
                            <mask id="mask-36" fill="white">
                                <use xlink:href="#path-35"></use>
                            </mask>
                            <g id="Clip-149"></g>
                            <path d="M38.6106,33.937 C37.2766,34.093 35.9186,34.179 34.5466,34.179 C15.6786,34.179 0.3786,18.879 0.3786,0.011 C0.3786,-7.677 2.9166,-14.773 7.2066,-20.485" id="Stroke-148" stroke="#000000" stroke-width="0.15" mask="url(#mask-36)"></path>
                        </g>
                        <g id="Group-153" transform="translate(290.000000, 2.000000)">
                            <mask id="mask-38" fill="white">
                                <use xlink:href="#path-37"></use>
                            </mask>
                            <g id="Clip-152"></g>
                            <path d="M27.1632,20.8668 C25.6792,21.1948 24.1292,21.3668 22.5432,21.3668 C10.7492,21.3668 1.1932,11.8048 1.1932,0.0108 C1.1872,-5.5632 3.3172,-10.6372 6.8132,-14.4372" id="Stroke-151" stroke="#000000" stroke-width="0.15" mask="url(#mask-38)"></path>
                        </g>
                        <g id="Group-156" transform="translate(302.000000, 2.000000)">
                            <mask id="mask-40" fill="white">
                                <use xlink:href="#path-39"></use>
                            </mask>
                            <g id="Clip-155"></g>
                            <path d="M1.9954,0.0112 C1.9954,4.7292 5.8194,8.5572 10.5454,8.5572 C15.2694,8.5572 19.0934,4.7292 19.0934,0.0112 C19.0934,-4.7148 15.2634,-8.5388 10.5454,-8.5388 C5.8194,-8.5388 1.9954,-4.7148 1.9954,0.0112 Z" id="Stroke-154" stroke="#000000" stroke-width="0.15" mask="url(#mask-40)"></path>
                        </g>
                        <g id="Group-159" transform="translate(468.000000, 12.000000)">
                            <mask id="mask-42" fill="white">
                                <use xlink:href="#path-41"></use>
                            </mask>
                            <g id="Clip-158"></g>
                            <path d="M11.1516,78.0386 C9.7016,76.2146 8.3696,74.2606 7.1636,72.1786 C-5.8064,49.7146 1.8856,20.9886 24.3596,8.0106 C46.8276,-4.9614 75.5536,2.7426 88.5276,25.2066 C89.7296,27.2846 90.7496,29.4146 91.5996,31.5786" id="Stroke-157" stroke="#000000" stroke-width="0.15" mask="url(#mask-42)"></path>
                        </g>
                        <g id="Group-162" transform="translate(480.000000, 26.000000)">
                            <mask id="mask-44" fill="white">
                                <use xlink:href="#path-43"></use>
                            </mask>
                            <g id="Clip-161"></g>
                            <path d="M8.4934,55.1792 C7.6894,54.1012 6.9414,52.9692 6.2574,51.7772 C-3.1786,35.4372 2.4234,14.5392 18.7594,5.1052 C35.1054,-4.3328 55.9954,1.2692 65.4374,17.6092 C66.1174,18.8012 66.7314,20.0232 67.2634,21.2612" id="Stroke-160" stroke="#000000" stroke-width="0.15" mask="url(#mask-44)"></path>
                        </g>
                        <g id="Group-165" transform="translate(370.000000, 12.000000)">
                            <mask id="mask-46" fill="white">
                                <use xlink:href="#path-45"></use>
                            </mask>
                            <g id="Clip-164"></g>
                            <path d="M0.4328,31.5932 C4.1768,21.9992 11.0868,13.5612 20.7068,8.0112 C30.3148,2.4612 41.0728,0.6952 51.2568,2.2492" id="Stroke-163" stroke="#000000" stroke-width="0.15" mask="url(#mask-46)"></path>
                        </g>
                        <g id="Group-168" transform="translate(382.000000, 26.000000)">
                            <mask id="mask-48" fill="white">
                                <use xlink:href="#path-47"></use>
                            </mask>
                            <g id="Clip-167"></g>
                            <path d="M0.7726,21.2612 C3.5726,14.6952 8.4526,8.9492 15.1066,5.1052 C21.7646,1.2612 29.1766,-0.0868 36.2606,0.7692" id="Stroke-166" stroke="#000000" stroke-width="0.15" mask="url(#mask-48)"></path>
                        </g>
                        <g id="Group-171" transform="translate(418.000000, 2.000000)">
                            <mask id="mask-50" fill="white">
                                <use xlink:href="#path-49"></use>
                            </mask>
                            <g id="Clip-170"></g>
                            <path d="M54.089,75.812 C51.789,76.164 49.423,76.344 47.025,76.344 C21.069,76.344 0.039,55.304 0.039,29.354 C0.039,18.258 3.883,8.054 10.325,0.012" id="Stroke-169" stroke="#000000" stroke-width="0.15" mask="url(#mask-50)"></path>
                        </g>
                        <path d="M501.714,2.0112 C504.652,5.6792 507.052,9.8012 508.792,14.2572" id="Stroke-172" stroke="#000000" stroke-width="0.15"></path>
                        <g id="Group-176" transform="translate(430.000000, 10.000000)">
                            <mask id="mask-52" fill="white">
                                <use xlink:href="#path-51"></use>
                            </mask>
                            <g id="Clip-175"></g>
                            <path d="M39.089,55.2886 C37.759,55.4446 36.397,55.5266 35.025,55.5266 C16.143,55.5306 0.851,40.2266 0.849,21.3546 C0.849,13.6666 3.385,6.5786 7.669,0.8666" id="Stroke-174" stroke="#000000" stroke-width="0.15" mask="url(#mask-52)"></path>
                        </g>
                        <path d="M492.3704,10.8628 C493.9904,13.0268 495.3704,15.3908 496.4484,17.9088" id="Stroke-177" stroke="#000000" stroke-width="0.15"></path>
                        <g id="Group-181" transform="translate(442.000000, 16.000000)">
                            <mask id="mask-54" fill="white">
                                <use xlink:href="#path-53"></use>
                            </mask>
                            <g id="Clip-180"></g>
                            <path d="M27.6536,36.2144 C26.1576,36.5424 24.6116,36.7184 23.0196,36.7184 C11.2216,36.7184 1.6616,27.1564 1.6616,15.3544 C1.6616,9.7884 3.7876,4.7224 7.2756,0.9244" id="Stroke-179" stroke="#000000" stroke-width="0.15" mask="url(#mask-54)"></path>
                        </g>
                        <path d="M480.7688,16.9176 C482.8508,19.1916 484.4528,21.9176 485.3948,24.9296" id="Stroke-182" stroke="#000000" stroke-width="0.15"></path>
                        <g id="Group-186" transform="translate(456.000000, 22.000000)">
                            <mask id="mask-56" fill="white">
                                <use xlink:href="#path-55"></use>
                            </mask>
                            <g id="Clip-185"></g>
                            <path d="M9.0246,0.8042 C4.3006,0.8042 0.4686,4.6322 0.4686,9.3542 C0.4686,14.0782 4.3006,17.9062 9.0246,17.9062 C13.7426,17.9062 17.5746,14.0782 17.5666,9.3542 C17.5746,4.6322 13.7426,0.8042 9.0246,0.8042 Z" id="Stroke-184" stroke="#000000" stroke-width="0.15" mask="url(#mask-56)"></path>
                        </g>
                        <g id="Group-189" transform="translate(356.000000, 0.000000)">
                            <mask id="mask-58" fill="white">
                                <use xlink:href="#path-57"></use>
                            </mask>
                            <g id="Clip-188"></g>
                            <path d="M0.3098,-73.7846 C2.6118,-74.1326 4.9678,-74.3086 7.3618,-74.3126 C33.3118,-74.3126 54.3518,-53.2806 54.3518,-27.3326 C54.3518,-16.2266 50.5038,-6.0286 44.0658,2.0114" id="Stroke-187" stroke="#000000" stroke-width="0.15" mask="url(#mask-58)"></path>
                        </g>
                        <g id="Group-192" transform="translate(318.000000, 0.000000)">
                            <mask id="mask-60" fill="white">
                                <use xlink:href="#path-59"></use>
                            </mask>
                            <g id="Clip-191"></g>
                            <path d="M8.671,2.0152 C5.733,-1.6488 3.333,-5.7628 1.599,-10.2148" id="Stroke-190" stroke="#000000" stroke-width="0.15" mask="url(#mask-60)"></path>
                        </g>
                        <g id="Group-195" transform="translate(166.000000, 12.000000)">
                            <mask id="mask-62" fill="white">
                                <use xlink:href="#path-61"></use>
                            </mask>
                            <g id="Clip-194"></g>
                            <path d="M1.1204,31.5932 C4.8704,21.9992 11.7764,13.5652 21.3944,8.0112 C31.0084,2.4612 41.7724,0.6952 51.9484,2.2452" id="Stroke-193" stroke="#000000" stroke-width="0.15" mask="url(#mask-62)"></path>
                        </g>
                        <g id="Group-198" transform="translate(178.000000, 26.000000)">
                            <mask id="mask-64" fill="white">
                                <use xlink:href="#path-63"></use>
                            </mask>
                            <g id="Clip-197"></g>
                            <path d="M1.464,21.2612 C4.268,14.6912 9.14,8.9492 15.804,5.1052 C22.46,1.2612 29.87,-0.0868 36.956,0.7692" id="Stroke-196" stroke="#000000" stroke-width="0.15" mask="url(#mask-64)"></path>
                        </g>
                        <g id="Group-201" transform="translate(10.000000, 0.000000)">
                            <mask id="mask-66" fill="white">
                                <use xlink:href="#path-65"></use>
                            </mask>
                            <g id="Clip-200"></g>
                            <path d="M11.7258,2.0112 C10.2738,0.1872 8.9358,-1.7668 7.7418,-3.8488 C-5.2322,-26.3168 2.4658,-55.0488 24.9338,-68.0168 C47.4058,-80.9928 76.1318,-73.2908 89.1058,-50.8228 C90.2998,-48.7468 91.3258,-46.6168 92.1778,-44.4488" id="Stroke-199" stroke="#000000" stroke-width="0.15" mask="url(#mask-66)"></path>
                        </g>
                        <g id="Group-204" transform="translate(0.000000, 12.000000)">
                            <mask id="mask-68" fill="white">
                                <use xlink:href="#path-67"></use>
                            </mask>
                            <g id="Clip-203"></g>
                            <path d="M0.5286,2.2456 C2.8386,1.8976 5.1946,1.7216 7.5986,1.7176 C33.5406,1.7176 54.5706,22.7536 54.5746,48.6956 C54.5746,59.7956 50.7246,69.9956 44.2926,78.0356" id="Stroke-202" stroke="#000000" stroke-width="0.15" mask="url(#mask-68)"></path>
                        </g>
                        <g id="Group-207" transform="translate(2.000000, 26.000000)">
                            <mask id="mask-70" fill="white">
                                <use xlink:href="#path-69"></use>
                            </mask>
                            <g id="Clip-206"></g>
                            <path d="M1.5382,0.7652 C2.8662,0.6092 4.2222,0.5272 5.5982,0.5272 C24.4662,0.5272 39.7642,15.8232 39.7602,34.6952 C39.7602,42.3832 37.2282,49.4792 32.9402,55.1872" id="Stroke-205" stroke="#000000" stroke-width="0.15" mask="url(#mask-70)"></path>
                        </g>
                        <g id="Group-210" transform="translate(14.000000, 2.000000)">
                            <mask id="mask-72" fill="white">
                                <use xlink:href="#path-71"></use>
                            </mask>
                            <g id="Clip-209"></g>
                            <path d="M0.6554,12.2496 C4.4014,2.6476 11.3114,-5.7864 20.9274,-11.3404 C43.4054,-24.3124 72.1314,-16.6184 85.1094,5.8596 C98.0814,28.3316 90.3874,57.0656 67.9114,70.0416 C58.2954,75.5936 47.5374,77.3636 37.3474,75.8036" id="Stroke-208" stroke="#000000" stroke-width="0.15" mask="url(#mask-72)"></path>
                        </g>
                        <g id="Group-213" transform="translate(26.000000, 2.000000)">
                            <mask id="mask-74" fill="white">
                                <use xlink:href="#path-73"></use>
                            </mask>
                            <g id="Clip-212"></g>
                            <path d="M0.9972,15.9176 C3.7952,9.3476 8.6752,3.6016 15.3332,-0.2424 C31.6812,-9.6804 52.5772,-4.0784 62.0172,12.2656 C71.4552,28.6096 65.8512,49.5076 49.5072,58.9496 C42.8492,62.7896 35.4372,64.1396 28.3532,63.2816" id="Stroke-211" stroke="#000000" stroke-width="0.15" mask="url(#mask-74)"></path>
                        </g>
                        <g id="Group-216" transform="translate(38.000000, 8.000000)">
                            <mask id="mask-76" fill="white">
                                <use xlink:href="#path-75"></use>
                            </mask>
                            <g id="Clip-215"></g>
                            <path d="M0.0382,16.9488 C1.5842,12.0188 4.9142,7.6368 9.7422,4.8508 C19.9562,-1.0472 33.0182,2.4528 38.9202,12.6708 C44.8222,22.8868 41.3182,35.9528 31.1022,41.8508 C26.2762,44.6328 20.8222,45.3248 15.7842,44.2028" id="Stroke-214" stroke="#000000" stroke-width="0.15" mask="url(#mask-76)"></path>
                        </g>
                        <g id="Group-219" transform="translate(48.000000, 22.000000)">
                            <mask id="mask-78" fill="white">
                                <use xlink:href="#path-77"></use>
                            </mask>
                            <g id="Clip-218"></g>
                            <path d="M17.8234,5.0738 C15.4634,0.9838 10.2374,-0.4142 6.1434,1.9458 C2.0534,4.3038 0.6554,9.5338 3.0174,13.6238 C5.3794,17.7138 10.6114,19.1158 14.6974,16.7538 C18.7874,14.3938 20.1874,9.1678 17.8234,5.0738 Z" id="Stroke-217" stroke="#000000" stroke-width="0.15" mask="url(#mask-78)"></path>
                        </g>
                        <g id="Group-222" transform="translate(162.000000, 2.000000)">
                            <mask id="mask-80" fill="white">
                                <use xlink:href="#path-79"></use>
                            </mask>
                            <g id="Clip-221"></g>
                            <path d="M12.2024,29.3512 C10.7464,27.5272 9.4104,25.5732 8.2144,23.4912 C-4.7616,1.0272 2.9364,-27.7028 25.4104,-40.6768 C47.8784,-53.6488 76.6044,-45.9488 89.5784,-23.4808 C90.7784,-21.4028 91.8004,-19.2728 92.6524,-17.1088" id="Stroke-220" stroke="#000000" stroke-width="0.15" mask="url(#mask-80)"></path>
                        </g>
                        <g id="Group-225" transform="translate(176.000000, 2.000000)">
                            <mask id="mask-82" fill="white">
                                <use xlink:href="#path-81"></use>
                            </mask>
                            <g id="Clip-224"></g>
                            <path d="M7.5402,20.4878 C6.7382,19.4138 5.9902,18.2798 5.3082,17.0898 C-4.1298,0.7498 1.4642,-20.1482 17.8122,-29.5822 C34.1562,-39.0202 55.0502,-33.4182 64.4862,-17.0782 C65.1642,-15.8862 65.7842,-14.6642 66.3162,-13.4302" id="Stroke-223" stroke="#000000" stroke-width="0.15" mask="url(#mask-82)"></path>
                        </g>
                        <g id="Group-228" transform="translate(188.000000, 2.000000)">
                            <mask id="mask-84" fill="white">
                                <use xlink:href="#path-83"></use>
                            </mask>
                            <g id="Clip-227"></g>
                            <path d="M7.1438,14.437 C6.1158,13.313 5.1918,12.059 4.3938,10.687 C-1.5002,0.469 1.9998,-12.595 12.2178,-18.489 C22.4358,-24.391 35.4918,-20.891 41.3938,-10.673 C42.1838,-9.301 42.8078,-7.875 43.2678,-6.423" id="Stroke-226" stroke="#000000" stroke-width="0.15" mask="url(#mask-84)"></path>
                        </g>
                        <g id="Group-231" transform="translate(202.000000, 2.000000)">
                            <mask id="mask-86" fill="white">
                                <use xlink:href="#path-85"></use>
                            </mask>
                            <g id="Clip-230"></g>
                            <path d="M4.6204,-7.3988 C0.5344,-5.0348 -0.8676,0.1912 1.4924,4.2812 C3.8484,8.3672 9.0784,9.7692 13.1664,7.4092 C17.2604,5.0472 18.6604,-0.1808 16.2964,-4.2708 C13.9404,-8.3588 8.7104,-9.7628 4.6204,-7.3988 Z" id="Stroke-229" stroke="#000000" stroke-width="0.15" mask="url(#mask-86)"></path>
                        </g>
                        <g id="Group-234" transform="translate(102.000000, 18.000000)">
                            <mask id="mask-88" fill="white">
                                <use xlink:href="#path-87"></use>
                            </mask>
                            <g id="Clip-233"></g>
                            <path d="M51.007,1.1168 C47.261,10.7188 40.345,19.1528 30.737,24.7028 C21.117,30.2528 10.361,32.0228 0.177,30.4648" id="Stroke-232" stroke="#000000" stroke-width="0.15" mask="url(#mask-88)"></path>
                        </g>
                        <g id="Group-237" transform="translate(104.000000, 14.000000)">
                            <mask id="mask-90" fill="white">
                                <use xlink:href="#path-89"></use>
                            </mask>
                            <g id="Clip-236"></g>
                            <path d="M36.6672,1.4488 C33.8632,8.0188 28.9872,13.7648 22.3312,17.6088 C15.6712,21.4528 8.2572,22.8008 1.1752,21.9448" id="Stroke-235" stroke="#000000" stroke-width="0.15" mask="url(#mask-90)"></path>
                        </g>
                        <path d="M129.6204,8.4332 C128.0704,13.3552 124.7444,17.7292 119.9244,20.5152 C115.1064,23.2972 109.6544,23.9872 104.6244,22.8672" id="Stroke-238" stroke="#000000" stroke-width="0.15"></path>
                        <g id="Group-242" transform="translate(100.000000, 2.000000)">
                            <mask id="mask-92" fill="white">
                                <use xlink:href="#path-91"></use>
                            </mask>
                            <g id="Clip-241"></g>
                            <path d="M16.6516,-4.2622 C14.2916,-8.3522 9.0596,-9.7542 4.9676,-7.3902 C0.8776,-5.0322 -0.5144,0.1978 1.8436,4.2878 C4.2056,8.3778 9.4296,9.7798 13.5236,7.4218 C17.6096,5.0578 19.0096,-0.1722 16.6516,-4.2622 Z" id="Stroke-240" stroke="#000000" stroke-width="0.15" mask="url(#mask-92)"></path>
                        </g>
                        <g id="Group-245" transform="translate(112.000000, 2.000000)">
                            <mask id="mask-94" fill="white">
                                <use xlink:href="#path-93"></use>
                            </mask>
                            <g id="Clip-244"></g>
                            <path d="M55.1398,17.1246 C52.8358,17.4766 50.4718,17.6526 48.0698,17.6526 C22.1198,17.6566 1.0878,-3.3834 1.0878,-29.3334 C1.0878,-40.4334 4.9358,-50.6334 11.3698,-58.6774" id="Stroke-243" stroke="#000000" stroke-width="0.15" mask="url(#mask-94)"></path>
                        </g>
                        <g id="Group-248" transform="translate(124.000000, 2.000000)">
                            <mask id="mask-96" fill="white">
                                <use xlink:href="#path-95"></use>
                            </mask>
                            <g id="Clip-247"></g>
                            <path d="M40.1398,4.6012 C38.8078,4.7572 37.4478,4.8392 36.0698,4.8392 C17.1918,4.8432 1.8998,-10.4608 1.8918,-29.3328 C1.8978,-37.0208 4.4358,-44.1088 8.7158,-49.8208" id="Stroke-246" stroke="#000000" stroke-width="0.15" mask="url(#mask-96)"></path>
                        </g>
                    </g>
                </g>
            </g>
        </g>
    </g>
</svg>